<mxfile host="app.diagrams.net" modified="2023-10-02T18:34:40.004Z" agent="Mozilla/5.0 (X11; Linux x86_64; rv:109.0) Gecko/20100101 Firefox/118.0" version="22.0.0" etag="i60pAb6o0YPiOShp8TBs" type="github">
  <diagram name="Page-1" id="AC1n05Bux-ozBf-BPuEy">
    <mxGraphModel>
      <root>
        <mxCell id="0" />
        <mxCell id="1" parent="0" />
      </root>
    </mxGraphModel>
  </diagram>
</mxfile>
